{
	"asset":{
		"generator":"Khronos glTF Blender I/O v3.5.30",
		"version":"2.0"
	},
	"extensionsUsed":[
		"KHR_lights_punctual"
	],
	"extensionsRequired":[
		"KHR_lights_punctual"
	],
	"extensions":{
		"KHR_lights_punctual":{
			"lights":[
				{
					"color":[
						1,
						1,
						1
					],
					"intensity":62449.773612698715,
					"type":"point",
					"name":"Light"
				}
			]
		}
	},
	"scene":0,
	"scenes":[
		{
			"name":"Scene",
			"nodes":[
				0,
				1,
				2,
				3,
				4,
				5,
				6,
				7
			]
		}
	],
	"nodes":[
		{
			"extensions":{
				"KHR_lights_punctual":{
					"light":0
				}
			},
			"name":"Light",
			"rotation":[
				-0.28416624665260315,
				0.7269423604011536,
				0.34203389286994934,
				0.5232754945755005
			],
			"translation":[
				4.076245307922363,
				5.903861999511719,
				-1.0054539442062378
			]
		},
		{
			"mesh":0,
			"name":"constructure",
			"rotation":[
				0.003997185733169317,
				0.004503787029534578,
				0.07846036553382874,
				0.9968990683555603
			],
			"translation":[
				1.1843194961547852,
				0.0918993428349495,
				1.057145357131958
			]
		},
		{
			"mesh":1,
			"name":"woodplane",
			"rotation":[
				-0.014558850787580013,
				0,
				0,
				0.9998940229415894
			],
			"translation":[
				-0.059092067182064056,
				2.384445905685425,
				0.15784741938114166
			]
		},
		{
			"mesh":2,
			"name":"woodplane02",
			"rotation":[
				0.5893656611442566,
				0,
				0,
				0.8078664541244507
			],
			"translation":[
				-0.059399086982011795,
				3.460752487182617,
				-0.9280860424041748
			]
		},
		{
			"mesh":3,
			"name":"woodstick01",
			"rotation":[
				-0.11864200979471207,
				0,
				0,
				0.9929371476173401
			],
			"translation":[
				-0.08540890365839005,
				1.6186200380325317,
				0.9721623659133911
			]
		},
		{
			"mesh":4,
			"name":"woodstick02",
			"rotation":[
				-0.01841655559837818,
				0,
				0,
				0.999830424785614
			],
			"translation":[
				-0.08540890365839005,
				1.7149484157562256,
				-0.9480315446853638
			]
		},
		{
			"mesh":5,
			"name":"hole01",
			"rotation":[
				-0.01343918964266777,
				6.75835253787227e-05,
				-0.09830404072999954,
				0.9950656890869141
			],
			"scale":[
				0.05285895615816116,
				0.05285895988345146,
				0.05285896360874176
			],
			"translation":[
				-0.9326146245002747,
				2.3635551929473877,
				-0.17038360238075256
			]
		},
		{
			"mesh":6,
			"name":"hole02",
			"rotation":[
				-0.11744353920221329,
				-0.805617094039917,
				-0.5799904465675354,
				0.02827109582722187
			],
			"scale":[
				-0.03354305773973465,
				-0.01441141963005066,
				-0.027123721316456795
			],
			"translation":[
				-0.7225976586341858,
				3.8025152683258057,
				-0.9251205325126648
			]
		}
	],
	"materials":[
		{
			"doubleSided":true,
			"name":"woodface",
			"normalTexture":{
				"index":0
			},
			"pbrMetallicRoughness":{
				"baseColorTexture":{
					"index":1
				},
				"metallicFactor":0,
				"metallicRoughnessTexture":{
					"index":2
				}
			}
		},
		{
			"doubleSided":true,
			"name":"iron",
			"pbrMetallicRoughness":{
				"baseColorFactor":[
					0.800000011920929,
					0.800000011920929,
					0.800000011920929,
					1
				],
				"metallicFactor":0,
				"roughnessFactor":0.07438015937805176
			}
		},
		{
			"doubleSided":true,
			"name":"hole",
			"pbrMetallicRoughness":{
				"baseColorFactor":[
					0,
					0,
					0,
					1
				],
				"metallicFactor":0,
				"roughnessFactor":0.5
			}
		},
		{
			"doubleSided":true,
			"name":"Material.001",
			"pbrMetallicRoughness":{
				"baseColorFactor":[
					0.8000000715255737,
					0.7892863154411316,
					0.595569908618927,
					1
				],
				"metallicFactor":0,
				"roughnessFactor":0.0041322261095047
			}
		}
	],
	"meshes":[
		{
			"name":"Cube",
			"primitives":[
				{
					"attributes":{
						"POSITION":0,
						"TEXCOORD_0":1,
						"NORMAL":2
					},
					"indices":3,
					"material":0
				}
			]
		},
		{
			"name":"Plane",
			"primitives":[
				{
					"attributes":{
						"POSITION":4,
						"TEXCOORD_0":5,
						"NORMAL":6
					},
					"indices":7,
					"material":0
				}
			]
		},
		{
			"name":"Plane.001",
			"primitives":[
				{
					"attributes":{
						"POSITION":8,
						"TEXCOORD_0":9,
						"NORMAL":10
					},
					"indices":11,
					"material":0
				}
			]
		},
		{
			"name":"Cube.002",
			"primitives":[
				{
					"attributes":{
						"POSITION":12,
						"TEXCOORD_0":13,
						"NORMAL":14
					},
					"indices":15,
					"material":0
				}
			]
		},
		{
			"name":"Cube.001",
			"primitives":[
				{
					"attributes":{
						"POSITION":16,
						"TEXCOORD_0":17,
						"NORMAL":18
					},
					"indices":19,
					"material":0
				}
			]
		},
		{
			"name":"Circle",
			"primitives":[
				{
					"attributes":{
						"POSITION":20,
						"TEXCOORD_0":21,
						"NORMAL":22
					},
					"indices":23,
					"material":1
				},
				{
					"attributes":{
						"POSITION":24,
						"TEXCOORD_0":25,
						"NORMAL":26
					},
					"indices":27,
					"material":2
				}
			]
		},
		{
			"name":"Circle.001",
			"primitives":[
				{
					"attributes":{
						"POSITION":28,
						"TEXCOORD_0":29,
						"NORMAL":30
					},
					"indices":31,
					"material":3
				},
				{
					"attributes":{
						"POSITION":32,
						"TEXCOORD_0":33,
						"NORMAL":34
					},
					"indices":27,
					"material":2
				}
			]
		}
	],
	"textures":[
		{
			"sampler":0,
			"source":0
		},
		{
			"sampler":0,
			"source":1
		},
		{
			"sampler":0,
			"source":2
		}
	],
	"images":[
		{
			"bufferView":4,
			"mimeType":"image/jpeg",
			"name":"Wood052_1K_NormalGL.jpg",
			"uri":"../Downloads/Wood052_1K-JPG/Wood052_1K_NormalGL.jpg"
		},
		{
			"bufferView":5,
			"mimeType":"image/jpeg",
			"name":"Wood035_1K_Color.jpg",
			"uri":"../Downloads/Wood035_1K-JPG/Wood035_1K_Color.jpg"
		},
		{
			"bufferView":6,
			"mimeType":"image/jpeg",
			"name":"Wood052_1K_Roughness.jpg",
			"uri":"../Downloads/Wood052_1K-JPG/Wood052_1K_Roughness.jpg"
		}
	],
	"accessors":[
		{
			"bufferView":0,
			"componentType":5126,
			"count":9012,
			"max":[
				0.05498286336660385,
				3.9077553749084473,
				0.0923924520611763
			],
			"min":[
				-2.5203003883361816,
				-0.0923924446105957,
				-2.2273569107055664
			],
			"type":"VEC3"
		},
		{
			"bufferView":1,
			"componentType":5126,
			"count":9012,
			"type":"VEC2"
		},
		{
			"bufferView":2,
			"componentType":5126,
			"count":9012,
			"type":"VEC3"
		},
		{
			"bufferView":3,
			"componentType":5123,
			"count":50016,
			"type":"SCALAR"
		},
		{
			"bufferView":7,
			"componentType":5126,
			"count":9298,
			"max":[
				1.287207841873169,
				0.04151472449302673,
				1.1684787273406982
			],
			"min":[
				-1.2872079610824585,
				-0.1926172375679016,
				-0.8172758221626282
			],
			"type":"VEC3"
		},
		{
			"bufferView":8,
			"componentType":5126,
			"count":9298,
			"type":"VEC2"
		},
		{
			"bufferView":9,
			"componentType":5126,
			"count":9298,
			"type":"VEC3"
		},
		{
			"bufferView":10,
			"componentType":5123,
			"count":49728,
			"type":"SCALAR"
		},
		{
			"bufferView":11,
			"componentType":5126,
			"count":7266,
			"max":[
				1.2066266536712646,
				0.19946247339248657,
				0.8553107380867004
			],
			"min":[
				-1.2066266536712646,
				-0.07894615828990936,
				-0.5645352005958557
			],
			"type":"VEC3"
		},
		{
			"bufferView":12,
			"componentType":5126,
			"count":7266,
			"type":"VEC2"
		},
		{
			"bufferView":13,
			"componentType":5126,
			"count":7266,
			"type":"VEC3"
		},
		{
			"bufferView":14,
			"componentType":5123,
			"count":39732,
			"type":"SCALAR"
		},
		{
			"bufferView":15,
			"componentType":5126,
			"count":1046,
			"max":[
				1.0261503458023071,
				0.16395676136016846,
				0.040960464626550674
			],
			"min":[
				-1.0261503458023071,
				-0.22014641761779785,
				-0.048123352229595184
			],
			"type":"VEC3"
		},
		{
			"bufferView":16,
			"componentType":5126,
			"count":1046,
			"type":"VEC2"
		},
		{
			"bufferView":17,
			"componentType":5126,
			"count":1046,
			"type":"VEC3"
		},
		{
			"bufferView":18,
			"componentType":5123,
			"count":4482,
			"type":"SCALAR"
		},
		{
			"bufferView":19,
			"componentType":5126,
			"count":1197,
			"max":[
				1.0261503458023071,
				0.16395676136016846,
				0.040960464626550674
			],
			"min":[
				-1.0261503458023071,
				-0.22014640271663666,
				-0.048123352229595184
			],
			"type":"VEC3"
		},
		{
			"bufferView":20,
			"componentType":5126,
			"count":1197,
			"type":"VEC2"
		},
		{
			"bufferView":21,
			"componentType":5126,
			"count":1197,
			"type":"VEC3"
		},
		{
			"bufferView":22,
			"componentType":5123,
			"count":4482,
			"type":"SCALAR"
		},
		{
			"bufferView":23,
			"componentType":5126,
			"count":192,
			"max":[
				33.335716247558594,
				7.032765865325928,
				22.008270263671875
			],
			"min":[
				-1.0957459211349487,
				0,
				-1.0000001192092896
			],
			"type":"VEC3"
		},
		{
			"bufferView":24,
			"componentType":5126,
			"count":192,
			"type":"VEC2"
		},
		{
			"bufferView":25,
			"componentType":5126,
			"count":192,
			"type":"VEC3"
		},
		{
			"bufferView":26,
			"componentType":5123,
			"count":528,
			"type":"SCALAR"
		},
		{
			"bufferView":27,
			"componentType":5126,
			"count":24,
			"max":[
				32.81294631958008,
				6.815250396728516,
				21.507591247558594
			],
			"min":[
				-0.5281637907028198,
				0,
				-0.4993152618408203
			],
			"type":"VEC3"
		},
		{
			"bufferView":28,
			"componentType":5126,
			"count":24,
			"type":"VEC2"
		},
		{
			"bufferView":29,
			"componentType":5126,
			"count":24,
			"type":"VEC3"
		},
		{
			"bufferView":30,
			"componentType":5123,
			"count":48,
			"type":"SCALAR"
		},
		{
			"bufferView":31,
			"componentType":5126,
			"count":192,
			"max":[
				42.38140869140625,
				0.18307164311408997,
				21.916507720947266
			],
			"min":[
				-1.0957459211349487,
				-22.95411491394043,
				-5.441587924957275
			],
			"type":"VEC3"
		},
		{
			"bufferView":32,
			"componentType":5126,
			"count":192,
			"type":"VEC2"
		},
		{
			"bufferView":33,
			"componentType":5126,
			"count":192,
			"type":"VEC3"
		},
		{
			"bufferView":34,
			"componentType":5123,
			"count":528,
			"type":"SCALAR"
		},
		{
			"bufferView":35,
			"componentType":5126,
			"count":24,
			"max":[
				41.903892517089844,
				0.18307164311408997,
				21.415822982788086
			],
			"min":[
				-0.5281637907028198,
				-22.403541564941406,
				-4.9255571365356445
			],
			"type":"VEC3"
		},
		{
			"bufferView":36,
			"componentType":5126,
			"count":24,
			"type":"VEC2"
		},
		{
			"bufferView":37,
			"componentType":5126,
			"count":24,
			"type":"VEC3"
		}
	],
	"bufferViews":[
		{
			"buffer":0,
			"byteLength":108144,
			"byteOffset":0,
			"target":34962
		},
		{
			"buffer":0,
			"byteLength":72096,
			"byteOffset":108144,
			"target":34962
		},
		{
			"buffer":0,
			"byteLength":108144,
			"byteOffset":180240,
			"target":34962
		},
		{
			"buffer":0,
			"byteLength":100032,
			"byteOffset":288384,
			"target":34963
		},
		{
			"buffer":0,
			"byteLength":645,
			"byteOffset":388416
		},
		{
			"buffer":0,
			"byteLength":645,
			"byteOffset":389064
		},
		{
			"buffer":0,
			"byteLength":645,
			"byteOffset":389712
		},
		{
			"buffer":0,
			"byteLength":111576,
			"byteOffset":390360,
			"target":34962
		},
		{
			"buffer":0,
			"byteLength":74384,
			"byteOffset":501936,
			"target":34962
		},
		{
			"buffer":0,
			"byteLength":111576,
			"byteOffset":576320,
			"target":34962
		},
		{
			"buffer":0,
			"byteLength":99456,
			"byteOffset":687896,
			"target":34963
		},
		{
			"buffer":0,
			"byteLength":87192,
			"byteOffset":787352,
			"target":34962
		},
		{
			"buffer":0,
			"byteLength":58128,
			"byteOffset":874544,
			"target":34962
		},
		{
			"buffer":0,
			"byteLength":87192,
			"byteOffset":932672,
			"target":34962
		},
		{
			"buffer":0,
			"byteLength":79464,
			"byteOffset":1019864,
			"target":34963
		},
		{
			"buffer":0,
			"byteLength":12552,
			"byteOffset":1099328,
			"target":34962
		},
		{
			"buffer":0,
			"byteLength":8368,
			"byteOffset":1111880,
			"target":34962
		},
		{
			"buffer":0,
			"byteLength":12552,
			"byteOffset":1120248,
			"target":34962
		},
		{
			"buffer":0,
			"byteLength":8964,
			"byteOffset":1132800,
			"target":34963
		},
		{
			"buffer":0,
			"byteLength":14364,
			"byteOffset":1141764,
			"target":34962
		},
		{
			"buffer":0,
			"byteLength":9576,
			"byteOffset":1156128,
			"target":34962
		},
		{
			"buffer":0,
			"byteLength":14364,
			"byteOffset":1165704,
			"target":34962
		},
		{
			"buffer":0,
			"byteLength":8964,
			"byteOffset":1180068,
			"target":34963
		},
		{
			"buffer":0,
			"byteLength":2304,
			"byteOffset":1189032,
			"target":34962
		},
		{
			"buffer":0,
			"byteLength":1536,
			"byteOffset":1191336,
			"target":34962
		},
		{
			"buffer":0,
			"byteLength":2304,
			"byteOffset":1192872,
			"target":34962
		},
		{
			"buffer":0,
			"byteLength":1056,
			"byteOffset":1195176,
			"target":34963
		},
		{
			"buffer":0,
			"byteLength":288,
			"byteOffset":1196232,
			"target":34962
		},
		{
			"buffer":0,
			"byteLength":192,
			"byteOffset":1196520,
			"target":34962
		},
		{
			"buffer":0,
			"byteLength":288,
			"byteOffset":1196712,
			"target":34962
		},
		{
			"buffer":0,
			"byteLength":96,
			"byteOffset":1197000,
			"target":34963
		},
		{
			"buffer":0,
			"byteLength":2304,
			"byteOffset":1197096,
			"target":34962
		},
		{
			"buffer":0,
			"byteLength":1536,
			"byteOffset":1199400,
			"target":34962
		},
		{
			"buffer":0,
			"byteLength":2304,
			"byteOffset":1200936,
			"target":34962
		},
		{
			"buffer":0,
			"byteLength":1056,
			"byteOffset":1203240,
			"target":34963
		},
		{
			"buffer":0,
			"byteLength":288,
			"byteOffset":1204296,
			"target":34962
		},
		{
			"buffer":0,
			"byteLength":192,
			"byteOffset":1204584,
			"target":34962
		},
		{
			"buffer":0,
			"byteLength":288,
			"byteOffset":1204776,
			"target":34962
		}
	],
	"samplers":[
		{
			"magFilter":9729,
			"minFilter":9987
		}
	],
	"buffers":[
		{
			"byteLength":1205064,
			"uri":"data:application/octet-stream;base64,"
		}
	]
}
